<svg width="184" height="23" viewBox="0 0 184 23" fill="none" xmlns="http://www.w3.org/2000/svg">
<path d="M74.4318 11.7741C74.4318 10.5279 74.5959 9.38115 74.924 8.33381C75.2521 7.28646 75.7311 6.32031 76.3608 5.43537H77.723C77.4777 5.76349 77.2491 6.16619 77.0369 6.64347C76.8248 7.12074 76.6392 7.64441 76.4801 8.21449C76.321 8.78125 76.1967 9.36955 76.1072 9.9794C76.0178 10.5859 75.973 11.1842 75.973 11.7741C75.973 12.563 76.0509 13.3617 76.2067 14.1705C76.3625 14.9792 76.5729 15.7299 76.8381 16.4226C77.1032 17.1153 77.3982 17.6804 77.723 18.1179H76.3608C75.7311 17.233 75.2521 16.2668 74.924 15.2195C74.5959 14.1721 74.4318 13.0237 74.4318 11.7741ZM82.9061 5.67898C83.3601 5.68229 83.8076 5.76515 84.2484 5.92756C84.6892 6.08996 85.0869 6.35511 85.4416 6.72301C85.7995 7.09091 86.0846 7.58807 86.2967 8.21449C86.5121 8.83759 86.6215 9.61316 86.6248 10.5412C86.6248 11.4328 86.5353 12.2266 86.3564 12.9226C86.1774 13.6153 85.9205 14.2003 85.5858 14.6776C85.2543 15.1548 84.8516 15.5178 84.3777 15.7663C83.9037 16.0149 83.3701 16.1392 82.7768 16.1392C82.1703 16.1392 81.6317 16.0199 81.161 15.7812C80.6904 15.5426 80.3076 15.2128 80.0126 14.7919C79.7176 14.3677 79.5337 13.8804 79.4608 13.3303H80.9771C81.0765 13.7678 81.2787 14.1224 81.5836 14.3942C81.8919 14.6626 82.2896 14.7969 82.7768 14.7969C83.5225 14.7969 84.1042 14.4721 84.5218 13.8224C84.9395 13.1695 85.1499 12.258 85.1532 11.0881H85.0737C84.9013 11.3731 84.6859 11.6184 84.4274 11.8239C84.1722 12.0294 83.8855 12.1884 83.5673 12.3011C83.2491 12.4138 82.9094 12.4702 82.5481 12.4702C81.9615 12.4702 81.4279 12.326 80.9473 12.0376C80.4667 11.7493 80.0839 11.3532 79.7988 10.8494C79.5138 10.3456 79.3713 9.7706 79.3713 9.12429C79.3713 8.4813 79.5171 7.89796 79.8088 7.37429C80.1038 6.85062 80.5147 6.43632 81.0417 6.13139C81.572 5.82315 82.1935 5.67235 82.9061 5.67898ZM82.911 6.97159C82.5233 6.97159 82.1736 7.06771 81.862 7.25994C81.5538 7.44886 81.3102 7.70573 81.1312 8.03054C80.9522 8.35204 80.8627 8.70999 80.8627 9.1044C80.8627 9.49882 80.9489 9.85677 81.1213 10.1783C81.2969 10.4964 81.5356 10.75 81.8372 10.9389C82.1421 11.1245 82.4901 11.2173 82.8812 11.2173C83.1729 11.2173 83.4447 11.161 83.6966 11.0483C83.9484 10.9356 84.1689 10.7798 84.3578 10.581C84.5467 10.3788 84.6942 10.1501 84.8002 9.89489C84.9063 9.63968 84.9593 9.37121 84.9593 9.08949C84.9593 8.71496 84.8699 8.36695 84.6909 8.04545C84.5152 7.72396 84.2733 7.46544 83.965 7.26989C83.6568 7.07102 83.3055 6.97159 82.911 6.97159ZM92.2156 16.169C91.43 16.1657 90.7589 15.9586 90.2021 15.5476C89.6452 15.1366 89.2193 14.5384 88.9244 13.7528C88.6294 12.9673 88.4819 12.0211 88.4819 10.9141C88.4819 9.81037 88.6294 8.86742 88.9244 8.08523C89.2227 7.30303 89.6502 6.70644 90.207 6.29545C90.7672 5.88447 91.4367 5.67898 92.2156 5.67898C92.9944 5.67898 93.6623 5.88613 94.2191 6.30043C94.7759 6.71141 95.2018 7.308 95.4968 8.0902C95.7951 8.86908 95.9442 9.81037 95.9442 10.9141C95.9442 12.0244 95.7968 12.9723 95.5018 13.7578C95.2068 14.54 94.7809 15.1383 94.2241 15.5526C93.6673 15.9635 92.9978 16.169 92.2156 16.169ZM92.2156 14.8416C92.9049 14.8416 93.4435 14.5052 93.8313 13.8324C94.2224 13.1596 94.418 12.1868 94.418 10.9141C94.418 10.0689 94.3285 9.35464 94.1495 8.77131C93.9738 8.18466 93.7203 7.74053 93.3888 7.43892C93.0607 7.134 92.6696 6.98153 92.2156 6.98153C91.5295 6.98153 90.9909 7.3196 90.5998 7.99574C90.2087 8.67187 90.0115 9.64465 90.0082 10.9141C90.0082 11.7625 90.096 12.4801 90.2717 13.0668C90.4506 13.6501 90.7042 14.0926 91.0323 14.3942C91.3604 14.6925 91.7549 14.8416 92.2156 14.8416ZM104.155 16.169C103.671 16.169 103.234 16.0795 102.843 15.9006C102.452 15.7183 102.142 15.4548 101.913 15.1101C101.688 14.7654 101.575 14.3428 101.575 13.8423C101.575 13.4115 101.658 13.0568 101.824 12.7784C101.989 12.5 102.213 12.2796 102.495 12.1172C102.776 11.9548 103.091 11.8321 103.439 11.7493C103.787 11.6664 104.142 11.6035 104.503 11.5604C104.961 11.5073 105.332 11.4643 105.617 11.4311C105.902 11.3946 106.109 11.3366 106.238 11.2571C106.368 11.1776 106.432 11.0483 106.432 10.8693V10.8345C106.432 10.4003 106.31 10.0639 106.064 9.82528C105.822 9.58665 105.461 9.46733 104.98 9.46733C104.48 9.46733 104.086 9.57836 103.797 9.80043C103.512 10.0192 103.315 10.2628 103.206 10.5312L101.809 10.2131C101.974 9.74905 102.216 9.37453 102.534 9.08949C102.856 8.80114 103.225 8.59233 103.643 8.46307C104.061 8.33049 104.5 8.2642 104.961 8.2642C105.266 8.2642 105.589 8.30066 105.93 8.37358C106.275 8.44318 106.596 8.57244 106.895 8.76136C107.196 8.95028 107.443 9.22041 107.635 9.57173C107.828 9.91974 107.924 10.3722 107.924 10.929V16H106.472V14.956H106.412C106.316 15.1482 106.172 15.3371 105.98 15.5227C105.788 15.7083 105.541 15.8625 105.239 15.9851C104.937 16.1077 104.576 16.169 104.155 16.169ZM104.478 14.9759C104.889 14.9759 105.241 14.8946 105.532 14.7322C105.827 14.5698 106.051 14.3577 106.203 14.0959C106.359 13.8307 106.437 13.5473 106.437 13.2457V12.2614C106.384 12.3144 106.281 12.3641 106.129 12.4105C105.98 12.4536 105.809 12.4917 105.617 12.5249C105.425 12.5547 105.237 12.5829 105.055 12.6094C104.873 12.6326 104.72 12.6525 104.598 12.669C104.309 12.7055 104.046 12.7668 103.807 12.853C103.572 12.9392 103.383 13.0634 103.24 13.2259C103.101 13.3849 103.032 13.5971 103.032 13.8622C103.032 14.2301 103.167 14.5085 103.439 14.6974C103.711 14.883 104.057 14.9759 104.478 14.9759ZM116.413 8.36364L113.644 16H112.053L109.279 8.36364H110.874L112.808 14.2401H112.888L114.817 8.36364H116.413ZM120.063 16.169C119.579 16.169 119.142 16.0795 118.751 15.9006C118.36 15.7183 118.05 15.4548 117.821 15.1101C117.596 14.7654 117.483 14.3428 117.483 13.8423C117.483 13.4115 117.566 13.0568 117.732 12.7784C117.897 12.5 118.121 12.2796 118.403 12.1172C118.685 11.9548 118.999 11.8321 119.347 11.7493C119.695 11.6664 120.05 11.6035 120.411 11.5604C120.869 11.5073 121.24 11.4643 121.525 11.4311C121.81 11.3946 122.017 11.3366 122.146 11.2571C122.276 11.1776 122.34 11.0483 122.34 10.8693V10.8345C122.34 10.4003 122.218 10.0639 121.972 9.82528C121.731 9.58665 121.369 9.46733 120.889 9.46733C120.388 9.46733 119.994 9.57836 119.705 9.80043C119.42 10.0192 119.223 10.2628 119.114 10.5312L117.717 10.2131C117.883 9.74905 118.124 9.37453 118.443 9.08949C118.764 8.80114 119.134 8.59233 119.551 8.46307C119.969 8.33049 120.408 8.2642 120.869 8.2642C121.174 8.2642 121.497 8.30066 121.838 8.37358C122.183 8.44318 122.504 8.57244 122.803 8.76136C123.104 8.95028 123.351 9.22041 123.544 9.57173C123.736 9.91974 123.832 10.3722 123.832 10.929V16H122.38V14.956H122.32C122.224 15.1482 122.08 15.3371 121.888 15.5227C121.696 15.7083 121.449 15.8625 121.147 15.9851C120.846 16.1077 120.484 16.169 120.063 16.169ZM120.387 14.9759C120.798 14.9759 121.149 14.8946 121.441 14.7322C121.735 14.5698 121.959 14.3577 122.112 14.0959C122.267 13.8307 122.345 13.5473 122.345 13.2457V12.2614C122.292 12.3144 122.19 12.3641 122.037 12.4105C121.888 12.4536 121.717 12.4917 121.525 12.5249C121.333 12.5547 121.146 12.5829 120.963 12.6094C120.781 12.6326 120.628 12.6525 120.506 12.669C120.218 12.7055 119.954 12.7668 119.715 12.853C119.48 12.9392 119.291 13.0634 119.149 13.2259C119.009 13.3849 118.94 13.5971 118.94 13.8622C118.94 14.2301 119.076 14.5085 119.347 14.6974C119.619 14.883 119.966 14.9759 120.387 14.9759ZM127.548 5.81818V16H126.062V5.81818H127.548ZM129.798 16V8.36364H131.285V16H129.798ZM130.549 7.18537C130.29 7.18537 130.068 7.09919 129.883 6.92685C129.7 6.75118 129.609 6.54238 129.609 6.30043C129.609 6.05516 129.7 5.84635 129.883 5.67401C130.068 5.49834 130.29 5.41051 130.549 5.41051C130.807 5.41051 131.028 5.49834 131.21 5.67401C131.396 5.84635 131.488 6.05516 131.488 6.30043C131.488 6.54238 131.396 6.75118 131.21 6.92685C131.028 7.09919 130.807 7.18537 130.549 7.18537ZM135.757 16.169C135.273 16.169 134.835 16.0795 134.444 15.9006C134.053 15.7183 133.743 15.4548 133.515 15.1101C133.289 14.7654 133.176 14.3428 133.176 13.8423C133.176 13.4115 133.259 13.0568 133.425 12.7784C133.591 12.5 133.815 12.2796 134.096 12.1172C134.378 11.9548 134.693 11.8321 135.041 11.7493C135.389 11.6664 135.743 11.6035 136.105 11.5604C136.562 11.5073 136.933 11.4643 137.218 11.4311C137.503 11.3946 137.711 11.3366 137.84 11.2571C137.969 11.1776 138.034 11.0483 138.034 10.8693V10.8345C138.034 10.4003 137.911 10.0639 137.666 9.82528C137.424 9.58665 137.063 9.46733 136.582 9.46733C136.082 9.46733 135.687 9.57836 135.399 9.80043C135.114 10.0192 134.917 10.2628 134.807 10.5312L133.41 10.2131C133.576 9.74905 133.818 9.37453 134.136 9.08949C134.458 8.80114 134.827 8.59233 135.245 8.46307C135.662 8.33049 136.101 8.2642 136.562 8.2642C136.867 8.2642 137.19 8.30066 137.532 8.37358C137.876 8.44318 138.198 8.57244 138.496 8.76136C138.798 8.95028 139.045 9.22041 139.237 9.57173C139.429 9.91974 139.525 10.3722 139.525 10.929V16H138.074V14.956H138.014C137.918 15.1482 137.774 15.3371 137.581 15.5227C137.389 15.7083 137.142 15.8625 136.841 15.9851C136.539 16.1077 136.178 16.169 135.757 16.169ZM136.08 14.9759C136.491 14.9759 136.842 14.8946 137.134 14.7322C137.429 14.5698 137.653 14.3577 137.805 14.0959C137.961 13.8307 138.039 13.5473 138.039 13.2457V12.2614C137.986 12.3144 137.883 12.3641 137.73 12.4105C137.581 12.4536 137.411 12.4917 137.218 12.5249C137.026 12.5547 136.839 12.5829 136.657 12.6094C136.474 12.6326 136.322 12.6525 136.199 12.669C135.911 12.7055 135.647 12.7668 135.409 12.853C135.173 12.9392 134.984 13.0634 134.842 13.2259C134.703 13.3849 134.633 13.5971 134.633 13.8622C134.633 14.2301 134.769 14.5085 135.041 14.6974C135.313 14.883 135.659 14.9759 136.08 14.9759ZM144.972 16.1541C144.233 16.1541 143.596 15.9867 143.063 15.652C142.532 15.3139 142.125 14.8482 141.84 14.255C141.555 13.6617 141.412 12.9822 141.412 12.2166C141.412 11.4411 141.558 10.7566 141.85 10.1634C142.141 9.56676 142.552 9.10109 143.083 8.76633C143.613 8.43158 144.238 8.2642 144.957 8.2642C145.537 8.2642 146.054 8.37192 146.508 8.58736C146.962 8.79948 147.328 9.09777 147.607 9.48224C147.888 9.86671 148.056 10.3158 148.109 10.8295H146.662C146.583 10.4716 146.4 10.1634 146.115 9.90483C145.834 9.64631 145.456 9.51705 144.982 9.51705C144.567 9.51705 144.204 9.62642 143.893 9.84517C143.585 10.0606 143.344 10.3688 143.172 10.7699C143 11.1676 142.914 11.6383 142.914 12.1818C142.914 12.7386 142.998 13.2192 143.167 13.6236C143.336 14.0279 143.575 14.3411 143.883 14.5632C144.195 14.7853 144.561 14.8963 144.982 14.8963C145.263 14.8963 145.519 14.8449 145.747 14.7422C145.979 14.6361 146.173 14.4853 146.329 14.2898C146.488 14.0942 146.599 13.8589 146.662 13.5838H148.109C148.056 14.0777 147.895 14.5185 147.627 14.9062C147.358 15.294 146.999 15.599 146.548 15.821C146.1 16.0431 145.575 16.1541 144.972 16.1541ZM144.435 15.9602H145.409L145.33 16.3679C145.618 16.4143 145.87 16.5303 146.085 16.7159C146.301 16.9015 146.409 17.1816 146.409 17.5561C146.412 18.0036 146.218 18.3665 145.827 18.6449C145.439 18.9233 144.877 19.0625 144.142 19.0625L144.112 18.2322C144.456 18.2322 144.735 18.1825 144.947 18.0831C145.162 17.9837 145.272 17.8229 145.275 17.6009C145.278 17.3788 145.195 17.223 145.026 17.1335C144.861 17.044 144.596 16.9811 144.231 16.9446L144.435 15.9602ZM153.165 16.1541C152.449 16.1541 151.824 15.9901 151.291 15.6619C150.757 15.3338 150.343 14.8748 150.048 14.2848C149.753 13.6948 149.605 13.0054 149.605 12.2166C149.605 11.4245 149.753 10.7318 150.048 10.1385C150.343 9.54522 150.757 9.08452 151.291 8.75639C151.824 8.42827 152.449 8.2642 153.165 8.2642C153.881 8.2642 154.506 8.42827 155.039 8.75639C155.573 9.08452 155.987 9.54522 156.282 10.1385C156.577 10.7318 156.725 11.4245 156.725 12.2166C156.725 13.0054 156.577 13.6948 156.282 14.2848C155.987 14.8748 155.573 15.3338 155.039 15.6619C154.506 15.9901 153.881 16.1541 153.165 16.1541ZM153.17 14.9062C153.634 14.9062 154.019 14.7836 154.324 14.5384C154.628 14.2931 154.854 13.9666 155 13.5589C155.149 13.1513 155.223 12.7022 155.223 12.2116C155.223 11.7244 155.149 11.277 155 10.8693C154.854 10.4583 154.628 10.1286 154.324 9.87997C154.019 9.63139 153.634 9.5071 153.17 9.5071C152.703 9.5071 152.315 9.63139 152.007 9.87997C151.702 10.1286 151.475 10.4583 151.326 10.8693C151.18 11.277 151.107 11.7244 151.107 12.2116C151.107 12.7022 151.18 13.1513 151.326 13.5589C151.475 13.9666 151.702 14.2931 152.007 14.5384C152.315 14.7836 152.703 14.9062 153.17 14.9062ZM151.669 7.43892L150.669 7.40909C150.669 6.8589 150.817 6.41974 151.112 6.09162C151.41 5.76349 151.778 5.59943 152.216 5.59943C152.418 5.59943 152.595 5.63423 152.748 5.70383C152.9 5.77012 153.042 5.84801 153.175 5.9375C153.311 6.02367 153.445 6.10156 153.578 6.17116C153.714 6.23745 153.864 6.2706 154.03 6.2706C154.222 6.2706 154.378 6.19768 154.498 6.05185C154.62 5.90601 154.681 5.72538 154.681 5.50994L155.661 5.57457C155.661 6.12808 155.512 6.56392 155.213 6.8821C154.915 7.19697 154.549 7.35606 154.115 7.35938C153.879 7.35938 153.684 7.32623 153.528 7.25994C153.376 7.19034 153.24 7.11245 153.12 7.02628C153.001 6.93679 152.878 6.85724 152.752 6.78764C152.627 6.71804 152.476 6.68324 152.3 6.68324C152.114 6.68324 151.962 6.75615 151.843 6.90199C151.727 7.04451 151.669 7.22348 151.669 7.43892ZM161.925 16.1541C161.173 16.1541 160.525 15.9934 159.981 15.6719C159.441 15.3471 159.023 14.8913 158.729 14.3047C158.437 13.7147 158.291 13.0237 158.291 12.2315C158.291 11.4493 158.437 10.7599 158.729 10.1634C159.023 9.56676 159.434 9.10109 159.961 8.76633C160.492 8.43158 161.112 8.2642 161.821 8.2642C162.252 8.2642 162.669 8.33546 163.074 8.47798C163.478 8.6205 163.841 8.84422 164.162 9.14915C164.484 9.45407 164.738 9.85014 164.923 10.3374C165.109 10.8213 165.202 11.4096 165.202 12.1023V12.6293H159.131V11.5156H163.745C163.745 11.1245 163.665 10.7782 163.506 10.4766C163.347 10.1716 163.123 9.93134 162.835 9.75568C162.55 9.58002 162.215 9.49219 161.831 9.49219C161.413 9.49219 161.049 9.59493 160.737 9.80043C160.429 10.0026 160.19 10.2678 160.021 10.5959C159.855 10.9207 159.773 11.2737 159.773 11.6548V12.5249C159.773 13.0353 159.862 13.4695 160.041 13.8274C160.223 14.1854 160.477 14.4588 160.802 14.6477C161.126 14.8333 161.506 14.9261 161.94 14.9261C162.222 14.9261 162.479 14.8864 162.711 14.8068C162.943 14.724 163.143 14.6013 163.312 14.4389C163.481 14.2765 163.611 14.076 163.7 13.8374L165.107 14.0909C164.994 14.5052 164.792 14.8681 164.501 15.1797C164.212 15.4879 163.849 15.7282 163.412 15.9006C162.978 16.0696 162.482 16.1541 161.925 16.1541ZM172.823 10.228L171.476 10.4666C171.42 10.2943 171.33 10.1302 171.207 9.97443C171.088 9.81865 170.926 9.69105 170.72 9.59162C170.515 9.49219 170.258 9.44247 169.95 9.44247C169.529 9.44247 169.177 9.53693 168.896 9.72585C168.614 9.91146 168.473 10.1518 168.473 10.4467C168.473 10.7019 168.567 10.9074 168.756 11.0632C168.945 11.219 169.25 11.3466 169.671 11.446L170.884 11.7244C171.587 11.8868 172.111 12.1371 172.455 12.4751C172.8 12.8132 172.972 13.2524 172.972 13.7926C172.972 14.25 172.84 14.6577 172.575 15.0156C172.313 15.3703 171.946 15.6487 171.476 15.8509C171.009 16.053 170.467 16.1541 169.85 16.1541C168.995 16.1541 168.297 15.9718 167.757 15.6072C167.217 15.2393 166.885 14.7173 166.763 14.0412L168.2 13.8224C168.289 14.197 168.473 14.4804 168.751 14.6726C169.03 14.8615 169.393 14.956 169.84 14.956C170.327 14.956 170.717 14.8549 171.009 14.6527C171.3 14.4472 171.446 14.197 171.446 13.902C171.446 13.6634 171.357 13.4628 171.178 13.3004C171.002 13.138 170.732 13.0154 170.367 12.9325L169.075 12.6491C168.362 12.4867 167.835 12.2282 167.494 11.8736C167.156 11.5189 166.987 11.0698 166.987 10.5263C166.987 10.0755 167.112 9.68111 167.364 9.34304C167.616 9.00497 167.964 8.74148 168.408 8.55256C168.853 8.36032 169.361 8.2642 169.935 8.2642C170.76 8.2642 171.41 8.44318 171.884 8.80114C172.357 9.15578 172.671 9.63139 172.823 10.228ZM181.67 11.7741C181.67 13.0237 181.506 14.1721 181.178 15.2195C180.85 16.2668 180.371 17.233 179.741 18.1179H178.379C178.625 17.7898 178.853 17.3871 179.065 16.9098C179.277 16.4325 179.463 15.9105 179.622 15.3438C179.781 14.7737 179.906 14.1837 179.995 13.5739C180.085 12.964 180.129 12.3641 180.129 11.7741C180.129 10.9886 180.051 10.1915 179.896 9.38281C179.74 8.5741 179.529 7.82339 179.264 7.13068C178.999 6.43797 178.704 5.87287 178.379 5.43537H179.741C180.371 6.32031 180.85 7.28646 181.178 8.33381C181.506 9.38115 181.67 10.5279 181.67 11.7741Z" fill="#8F8F8F"/>
<rect width="63" height="23" rx="4" fill="#F6AA1C"/>
<path d="M12.5767 15.4091V13.2614L16.6733 6.81818H18.6222V9.68182H17.5085L15.3011 13.1818V13.2614H21.3466V15.4091H12.5767ZM17.5284 17V14.7528L17.5881 13.8182V6.81818H20.1733V17H17.5284ZM24.2676 17.1591C23.8831 17.1591 23.5533 17.0249 23.2782 16.7564C23.0065 16.4846 22.8722 16.1548 22.8755 15.767C22.8722 15.3892 23.0065 15.0661 23.2782 14.7976C23.5533 14.5291 23.8831 14.3949 24.2676 14.3949C24.6322 14.3949 24.9537 14.5291 25.2321 14.7976C25.5138 15.0661 25.6563 15.3892 25.6596 15.767C25.6563 16.0256 25.5884 16.2609 25.4558 16.473C25.3265 16.6818 25.1575 16.8492 24.9487 16.9751C24.7399 17.0978 24.5128 17.1591 24.2676 17.1591ZM27.3327 17L31.3299 9.08523V9.02557H26.6367V6.81818H34.1935V9.02557L30.1765 17H27.3327Z" fill="white"/>
<path d="M44.7308 7.17734C44.8966 6.94089 45.2848 6.94089 45.4507 7.17734L47.2009 9.6726C47.2593 9.7558 47.352 9.8155 47.4592 9.83898L50.6773 10.5434C50.9822 10.6102 51.1022 10.9375 50.8997 11.1503L48.7634 13.3969C48.6922 13.4718 48.6568 13.5684 48.6647 13.6661L48.9034 16.5968C48.926 16.8745 48.6119 17.0767 48.3209 16.9719L45.2504 15.8651C45.148 15.8282 45.0334 15.8282 44.9311 15.8651L41.8605 16.9719C41.5696 17.0767 41.2555 16.8745 41.2781 16.5968L41.5167 13.6661C41.5247 13.5684 41.4893 13.4718 41.4181 13.3969L39.2817 11.1503C39.0793 10.9375 39.1993 10.6102 39.5042 10.5434L42.7222 9.83898C42.8295 9.8155 42.9222 9.7558 42.9806 9.6726L44.7308 7.17734Z" fill="white"/>
</svg>
